<?xml version="1.0" encoding="utf-8"?>
<!-- Generator: Adobe Illustrator 16.0.0, SVG Export Plug-In . SVG Version: 6.00 Build 0)  -->
<!DOCTYPE svg PUBLIC "-//W3C//DTD SVG 1.1//EN" "http://www.w3.org/Graphics/SVG/1.1/DTD/svg11.dtd">
<svg version="1.1" id="Capa_1" xmlns="http://www.w3.org/2000/svg" xmlns:xlink="http://www.w3.org/1999/xlink" x="0px" y="0px"
	 width="55px" height="55px" viewBox="7.5 7.5 55 55" enable-background="new 7.5 7.5 55 55" xml:space="preserve">
<path fill="#FFFFFF" d="M42.012,28.244c0.021-0.129,0.027-0.25,0.027-0.364c0-1.03-0.643-1.541-1.934-1.541
	c-0.619,0-1.033,0.105-1.252,0.313c-0.217,0.213-0.369,0.63-0.457,1.26c-0.494-0.694-0.992-1.163-1.494-1.407
	c-0.461-0.223-1.123-0.331-1.977-0.331c-2.202,0-4.114,1.121-5.728,3.359c-1.486,2.06-2.229,4.263-2.229,6.603
	c0,1.826,0.481,3.43,1.449,4.815c1.068,1.523,2.467,2.286,4.189,2.286c1.478,0,2.894-0.528,4.25-1.587
	c0.613,1.059,1.66,1.587,3.133,1.587c2.795,0,5.188-1.179,7.174-3.541C49.055,37.454,50,34.872,50,31.956
	c0-3.485-1.469-6.394-4.4-8.721C42.883,21.079,39.775,20,36.27,20c-4.558,0-8.384,1.441-11.485,4.325
	C21.595,27.299,20,31.093,20,35.709c0,4.718,1.637,8.343,4.902,10.874C27.835,48.862,31.683,50,36.445,50
	c2.029,0,4.008-0.316,5.938-0.953c2.115-0.694,3.859-1.683,5.225-2.965c0.441-0.424,0.867-0.938,1.27-1.542
	c0.504-0.737,0.752-1.332,0.752-1.785c0-0.342-0.119-0.648-0.359-0.917s-0.529-0.401-0.863-0.401c-0.631,0-1.162,0.224-1.596,0.664
	c-0.717,0.771-1.248,1.358-1.594,1.76c-2.344,2.046-5.254,3.069-8.742,3.069c-3.736,0-6.729-0.916-8.972-2.75
	c-2.452-2.009-3.676-4.879-3.676-8.617c0-3.629,1.165-6.661,3.5-9.098c2.333-2.432,5.271-3.651,8.815-3.651
	c2.783,0,5.102,0.791,6.951,2.376c1.982,1.68,2.967,3.919,2.967,6.708c0,1.461-0.248,2.823-0.75,4.082
	c-0.563,1.412-1.375,2.497-2.436,3.265c-0.799,0.574-1.424,0.859-1.875,0.859c-0.494,0-0.738-0.229-0.738-0.693
	c0-0.192,0.127-1.078,0.385-2.662L42.012,28.244z M36.328,36.589c-0.908,2.514-1.873,3.773-2.895,3.773
	c-1.525,0-2.29-0.977-2.29-2.926c0-1.515,0.438-3.219,1.317-5.12c1.022-2.242,2.188-3.362,3.497-3.362
	c0.543,0,0.943,0.293,1.213,0.876c0.215,0.448,0.324,0.979,0.324,1.594C37.492,32.738,37.105,34.46,36.328,36.589z"/>
</svg>
