<?xml version="1.0" encoding="utf-8"?>
<!-- Generator: Adobe Illustrator 16.0.0, SVG Export Plug-In . SVG Version: 6.00 Build 0)  -->
<!DOCTYPE svg PUBLIC "-//W3C//DTD SVG 1.1//EN" "http://www.w3.org/Graphics/SVG/1.1/DTD/svg11.dtd">
<svg version="1.1" id="Capa_1" xmlns="http://www.w3.org/2000/svg" xmlns:xlink="http://www.w3.org/1999/xlink" x="0px" y="0px"
	 width="55px" height="55px" viewBox="7.5 7.5 55 55" enable-background="new 7.5 7.5 55 55" xml:space="preserve">
<g>
	<g>
		<path fill="#FFFFFF" d="M40.217,37.087c0.572,0,1.056,0.277,1.472,0.85c0.415,0.564,0.624,1.26,0.624,2.082
			c0,0.826-0.207,1.526-0.624,2.086c-0.419,0.563-0.903,0.848-1.472,0.848c-0.604,0-1.123-0.278-1.535-0.848
			c-0.415-0.563-0.626-1.26-0.626-2.086s0.206-1.52,0.626-2.082C39.096,37.368,39.616,37.087,40.217,37.087 M47.583,29.456
			C49.19,31.196,50,33.307,50,35.784c0,1.606-0.189,3.049-0.553,4.335c-0.373,1.28-0.84,2.326-1.4,3.129
			c-0.57,0.808-1.26,1.514-2.09,2.117c-0.829,0.615-1.594,1.055-2.282,1.337c-0.691,0.283-1.484,0.5-2.386,0.652
			c-0.888,0.158-1.558,0.24-2.021,0.265c-0.451,0.021-0.94,0.029-1.468,0.029c-0.116,0-0.52,0.014-1.176,0.032
			c-0.643,0.026-1.193,0.036-1.625,0.036c-0.428,0-0.982-0.01-1.625-0.036c-0.653-0.021-1.055-0.032-1.174-0.032
			c-0.526,0-1.02-0.007-1.467-0.029c-0.468-0.024-1.136-0.108-2.02-0.265c-0.904-0.149-1.693-0.365-2.388-0.652
			c-0.688-0.279-1.454-0.726-2.279-1.337c-0.833-0.608-1.525-1.313-2.094-2.117c-0.561-0.803-1.03-1.849-1.4-3.129
			C20.19,38.833,20,37.391,20,35.784c0-2.477,0.807-4.588,2.417-6.328c-0.174-0.085-0.185-0.952-0.025-2.605
			c0.145-1.654,0.495-3.176,1.063-4.567c2.006,0.214,4.475,1.347,7.433,3.39c0.999-0.26,2.366-0.393,4.109-0.393
			c1.828,0,3.198,0.132,4.113,0.393c1.347-0.91,2.638-1.652,3.867-2.221c1.247-0.56,2.146-0.891,2.715-0.977l0.847-0.192
			c0.572,1.389,0.924,2.918,1.066,4.567C47.771,28.503,47.762,29.372,47.583,29.456 M35.072,46.215c3.61,0,6.328-0.428,8.178-1.301
			c1.844-0.866,2.775-2.653,2.775-5.352c0-1.562-0.585-2.868-1.764-3.911c-0.604-0.568-1.314-0.912-2.125-1.046
			c-0.794-0.129-2.025-0.129-3.682,0c-1.647,0.134-2.778,0.193-3.384,0.193c-0.826,0-1.726-0.044-2.837-0.129
			c-1.114-0.081-1.985-0.137-2.609-0.164c-0.637-0.019-1.318,0.061-2.053,0.23c-0.746,0.174-1.348,0.476-1.834,0.911
			c-1.121,0.999-1.69,2.303-1.69,3.913c0,2.696,0.913,4.484,2.737,5.349c1.825,0.873,4.537,1.302,8.147,1.302 M29.85,37.087
			c0.566,0,1.053,0.277,1.467,0.85c0.414,0.564,0.626,1.26,0.626,2.082c0,0.826-0.208,1.526-0.626,2.086
			c-0.414,0.563-0.904,0.848-1.467,0.848c-0.607,0-1.123-0.278-1.54-0.848c-0.413-0.563-0.623-1.26-0.623-2.086
			s0.206-1.52,0.623-2.082C28.727,37.368,29.243,37.087,29.85,37.087"/>
	</g>
</g>
</svg>
