<?xml version="1.0" encoding="utf-8"?>
<!-- Generator: Adobe Illustrator 16.0.0, SVG Export Plug-In . SVG Version: 6.00 Build 0)  -->
<!DOCTYPE svg PUBLIC "-//W3C//DTD SVG 1.1//EN" "http://www.w3.org/Graphics/SVG/1.1/DTD/svg11.dtd">
<svg version="1.1" id="Capa_1" xmlns="http://www.w3.org/2000/svg" xmlns:xlink="http://www.w3.org/1999/xlink" x="0px" y="0px"
	 width="55px" height="55px" viewBox="7.5 6.5 55 55" enable-background="new 7.5 6.5 55 55" xml:space="preserve">
<g>
	<g>
		<path fill="#FFFFFF" d="M22.5,46.497h4.691V27.735H22.5V46.497z M41.263,27.735c-4.016,0.067-5.992,2.992-6.255,3.126v-3.126
			h-4.691v18.762h4.691V35.553c0-0.401,0.989-3.616,4.69-3.127c1.99,0.13,3.062,2.76,3.128,3.127v10.944L47.5,46.52V33.53
			C47.334,31.655,46.396,27.803,41.263,27.735z M24.847,21.481c-1.296,0-2.347,1.049-2.347,2.345c0,1.297,1.05,2.346,2.347,2.346
			c1.293,0,2.345-1.048,2.345-2.346C27.191,22.529,26.14,21.481,24.847,21.481z"/>
	</g>
</g>
</svg>
