<?xml version="1.0" encoding="utf-8"?>
<!-- Generator: Adobe Illustrator 16.0.0, SVG Export Plug-In . SVG Version: 6.00 Build 0)  -->
<!DOCTYPE svg PUBLIC "-//W3C//DTD SVG 1.1//EN" "http://www.w3.org/Graphics/SVG/1.1/DTD/svg11.dtd">
<svg version="1.1" id="Capa_1" xmlns="http://www.w3.org/2000/svg" xmlns:xlink="http://www.w3.org/1999/xlink" x="0px" y="0px"
	 width="55px" height="55px" viewBox="7.5 7.5 55 55" enable-background="new 7.5 7.5 55 55" xml:space="preserve">
<path fill="#FFFFFF" d="M49.285,25.505c-0.481,0.286-1.927,0.854-3.27,1c0.861-0.502,2.141-2.143,2.455-3.449
	c-0.83,0.57-2.736,1.402-3.676,1.402c0,0,0,0.002,0,0.004c-1.074-1.209-2.585-1.962-4.262-1.962c-3.254,0-5.893,2.841-5.893,6.347
	c0,0.487,0.054,0.959,0.149,1.415l0,0c-4.417-0.122-9.578-2.505-12.485-6.584c-1.787,3.332-0.242,7.036,1.786,8.385
	c-0.694,0.059-1.972-0.084-2.574-0.714c-0.042,2.209,0.945,5.138,4.546,6.2c-0.693,0.404-1.919,0.289-2.452,0.2
	c0.188,1.87,2.616,4.309,5.267,4.309c-0.944,1.175-4.17,3.316-8.163,2.634c2.712,1.779,5.873,2.809,9.218,2.809
	c9.509,0,16.895-8.3,16.498-18.537c0-0.012-0.004-0.023-0.004-0.036c0-0.027,0.004-0.057,0.004-0.079
	c0-0.031-0.004-0.063-0.004-0.097C47.292,28.119,48.452,26.991,49.285,25.505z"/>
</svg>
